# xmcd
#
# Track frame offsets: 
#        150
#        17463
#        33027
#        51976
#        71268
#        91629
#        116269
#        139917
#        156573
#        178856
#        195309
#        212297
#        229420
#        240720
#        262291
#        279106
#
# Disc length: 4027 seconds
#
# Revision: 0
# Processed by: cddbd v1.5.2PL0 Copyright (c) Steve Scherf et al.
# Submitted via: ExactAudioCopy v0.99pb4
#
DISCID=d30fb910
DTITLE=Cool Disposition - Jumping In The Mudd
DYEAR=2009
DGENRE=Blues
TTITLE0=What Comes Around
TTITLE1=My Better Half
TTITLE2=Put Your Money Where Your Big Mouth Is
TTITLE3=Messed Up
TTITLE4=Time Keeps Ticking
TTITLE5=It's Plain As Day
TTITLE6=Something's Cooking
TTITLE7=Quit Dogg'n Me
TTITLE8=Mixed Messages
TTITLE9=Rub A Dub Me
TTITLE10=Minimum Wage
TTITLE11=She's My Girl
TTITLE12=Dog Walker Blues
TTITLE13=Every Hour Everyday
TTITLE14=Easy On The Eyes
TTITLE15=After Daddy's Money
EXTD=
EXTT0=
EXTT1=
EXTT2=
EXTT3=
EXTT4=
EXTT5=
EXTT6=
EXTT7=
EXTT8=
EXTT9=
EXTT10=
EXTT11=
EXTT12=
EXTT13=
EXTT14=
EXTT15=
PLAYORDER=
